<svg xmlns="http://www.w3.org/2000/svg" width="512" height="512" viewBox="0 0 512 512" version="1.1">
	<path d="M 78.342 1.470 C 55.810 5.589, 34.943 18.034, 20.865 35.751 C 13.651 44.829, 5.688 60.748, 2.733 72 L 0.500 80.500 0.500 256 L 0.500 431.500 2.721 440 C 5.710 451.442, 14.583 468.787, 22.042 477.769 C 33.933 492.088, 53.456 504.397, 72 509.267 L 80.500 511.500 256 511.500 L 431.500 511.500 440 509.267 C 458.544 504.397, 478.067 492.088, 489.958 477.769 C 500.197 465.439, 511 440.864, 511 429.899 C 511 428.369, 511.450 426.840, 512 426.500 C 512.660 426.092, 513 367.803, 513 254.882 C 513 141.137, 512.665 84.089, 512 84.500 C 511.421 84.858, 511 83.897, 511 82.219 C 511 71.519, 501.035 48.208, 491.135 35.751 C 478.882 20.332, 460.645 8.450, 440.500 2.761 L 432.500 0.502 259 0.332 C 119.785 0.195, 84.085 0.420, 78.342 1.470 M 241.263 75.458 C 234.957 78.394, 226.531 86.039, 223.885 91.225 C 221.697 95.514, 221.001 95.763, 218.602 93.113 C 217.663 92.075, 214.106 89.937, 210.697 88.363 C 205.276 85.858, 203.373 85.508, 195.500 85.564 C 188.048 85.618, 185.554 86.067, 181 88.177 C 169.096 93.692, 160.186 105.707, 159.202 117.574 C 158.955 120.558, 158.471 122.997, 158.126 122.994 C 157.782 122.991, 154.917 122.565, 151.760 122.048 C 135.713 119.420, 119.675 127.776, 112.425 142.543 C 108.755 150.016, 107.847 162.168, 110.398 169.656 C 111.279 172.241, 112 174.451, 112 174.567 C 112 174.683, 110.313 175.087, 108.250 175.466 C 102.001 176.615, 92.249 182.007, 87.912 186.711 C 82.105 193.011, 78.773 200.850, 78.217 209.525 C 77.523 220.333, 81.444 231.657, 87.870 237.405 C 89.042 238.453, 89.967 239.803, 89.926 240.405 C 89.885 241.007, 87.522 243.318, 84.676 245.541 C 77.385 251.233, 71.715 262.345, 71.169 272.013 C 70.391 285.776, 79.239 300.618, 91.810 306.636 C 94.939 308.134, 97.587 309.404, 97.694 309.457 C 97.801 309.511, 96.299 312.692, 94.357 316.527 C 90.900 323.355, 90.834 323.708, 91.198 333.500 C 91.535 342.575, 91.880 344.080, 94.934 349.768 C 101.705 362.383, 112.483 368.760, 128 369.334 L 132.500 369.500 132.162 376.191 C 131.386 391.558, 139.467 405.136, 153.500 412.040 C 157.856 414.183, 159.852 414.498, 169 414.488 C 179.042 414.476, 181.457 413.943, 188.122 410.262 C 188.464 410.073, 189.513 412.272, 190.454 415.149 C 193.776 425.307, 200.059 432.203, 210.500 437.154 C 215.745 439.640, 217.661 439.999, 225.723 439.999 C 233.696 440, 235.727 439.630, 240.718 437.267 C 243.893 435.764, 248.708 432.397, 251.417 429.785 L 256.344 425.036 261.585 429.992 C 269.416 437.398, 276.122 440, 287.374 439.999 C 295.397 439.999, 297.251 439.643, 302.719 437.056 C 306.140 435.438, 310.950 432.103, 313.408 429.644 C 318.076 424.977, 323 416.479, 323 413.092 C 323 410.061, 324.280 409.893, 329.084 412.293 C 332.756 414.128, 335.188 414.500, 343.515 414.500 C 352.812 414.500, 354.009 414.265, 360.200 411.219 C 373.543 404.657, 380.388 393.345, 380.455 377.750 L 380.493 369 386.709 369 C 390.561 369, 395.044 368.207, 398.497 366.915 C 405.883 364.152, 415.031 355.672, 418.711 348.178 C 421.198 343.114, 421.500 341.418, 421.500 332.500 C 421.500 322.637, 420.596 319.361, 415.275 309.932 C 415.099 309.619, 417.298 308.269, 420.161 306.932 C 427.160 303.664, 434.505 296.300, 437.781 289.270 C 441.536 281.210, 442.084 268.935, 439.050 260.847 C 436.433 253.872, 431.551 247.347, 426.147 243.602 L 422.048 240.761 425.468 236.767 C 438.377 221.685, 437.693 199.788, 423.882 185.977 C 418.844 180.939, 411.040 176.657, 404.750 175.479 C 402.688 175.093, 401 174.559, 401 174.293 C 401 174.026, 401.733 171.287, 402.628 168.206 C 406.345 155.421, 401.910 140.688, 391.473 131.149 C 382.694 123.126, 371.570 120.122, 358.750 122.311 L 354 123.123 354 120.082 C 354 115.259, 350.180 104.914, 346.557 99.925 C 340.395 91.440, 327.609 85, 316.924 85 C 310.514 85, 300.236 88.322, 295.072 92.063 C 292.730 93.759, 290.711 95.002, 290.585 94.824 C 290.459 94.646, 289.154 92.400, 287.685 89.834 C 284.327 83.967, 278.044 78.451, 271.221 75.378 C 266.822 73.396, 264.324 73.002, 256.221 73.010 C 248.029 73.018, 245.676 73.403, 241.263 75.458 M 0.489 256 C 0.489 350.325, 0.606 388.913, 0.750 341.750 C 0.894 294.588, 0.894 217.413, 0.750 170.250 C 0.606 123.088, 0.489 161.675, 0.489 256 M 155.383 203.885 C 149.268 205.470, 142.802 209.314, 137.938 214.255 C 135.222 217.014, 133 219.998, 133 220.886 C 133 223.041, 139.523 230.041, 144.500 233.227 C 159.008 242.513, 178.090 240.226, 190.250 227.743 C 192.863 225.061, 195 221.975, 195 220.886 C 195 217.955, 186.301 209.784, 179.791 206.599 C 175.431 204.466, 172.292 203.732, 166.304 203.448 C 162.012 203.244, 157.097 203.441, 155.383 203.885 M 338.079 205.585 C 335.648 206.468, 332.048 208.210, 330.079 209.455 C 326.248 211.879, 318 220.355, 318 221.870 C 318 224.422, 327.662 233.201, 333.794 236.219 C 339.836 239.194, 341.302 239.500, 349.500 239.500 C 357.698 239.500, 359.164 239.194, 365.206 236.219 C 371.380 233.180, 381 224.417, 381 221.832 C 381 219.611, 370.591 210.122, 365.266 207.489 C 358.010 203.901, 345.189 203.003, 338.079 205.585 M 229.500 215.631 C 225.471 218.789, 218.325 221.183, 211.316 221.724 L 204.133 222.279 202.816 227.389 C 201.845 231.159, 201.500 242.074, 201.500 269 C 201.500 302.045, 201.677 306.021, 203.372 311 C 208.782 326.891, 218.460 338.281, 232.140 344.853 C 239.848 348.556, 250.452 351.456, 252.241 350.351 C 253.406 349.631, 250.340 344.413, 247.385 342.088 C 245.925 340.940, 243.736 340, 242.520 340 C 241.305 340, 239.481 339.084, 238.468 337.965 C 236.676 335.984, 236.681 335.875, 238.668 333.887 C 240.470 332.086, 241.181 331.972, 244.701 332.920 C 246.896 333.511, 250.525 335.322, 252.766 336.946 C 256.180 339.419, 257.029 339.670, 258.002 338.497 C 259.703 336.448, 269.029 332, 271.625 332 C 273.839 332, 277 334.353, 277 336 C 277 337.803, 273.739 340, 271.063 340 C 269.527 340, 267.075 340.940, 265.615 342.088 C 262.660 344.413, 259.594 349.631, 260.759 350.351 C 262.543 351.454, 273.143 348.560, 280.805 344.879 C 294.599 338.252, 304.978 325.892, 309.671 310.500 C 311.303 305.146, 311.499 300.519, 311.488 267.500 C 311.477 237.195, 311.205 229.776, 309.985 226.500 L 308.494 222.500 301.662 221.824 C 294.297 221.096, 288.343 219.093, 283.684 215.775 C 280.883 213.781, 280.634 213.763, 278.126 215.391 C 270.728 220.190, 266.651 221.355, 257 221.428 C 247.112 221.503, 241.775 220.112, 235.903 215.931 C 232.662 213.623, 232.096 213.597, 229.500 215.631" stroke="none" fill="black" fill-rule="evenodd"/>
</svg>